<svg id="Layer_1" enable-background="new 0 0 127.999 128" height="300" viewBox="0 0 127.999 128" width="300" xmlns="http://www.w3.org/2000/svg" version="1.1" xmlns:xlink="http://www.w3.org/1999/xlink" xmlns:svgjs="http://svgjs.dev/svgjs"><g width="100%" height="100%" transform="matrix(-1,0,0,1,122.99853134155273,0)"><g fill="#231f20"><path d="m111.352 17.575h-13.989c-1.459 0-2.705 1.049-2.955 2.486l-2.096 12.071h-75.666c-.879 0-1.715.387-2.285 1.058-.57.67-.816 1.558-.676 2.426l5.285 32.36c.213 1.305 1.256 2.316 2.566 2.49l62.676 8.318-.695 4.011h-58.087c-1.656 0-3 1.343-3 3s1.344 3 3 3h60.611c1.459 0 2.707-1.05 2.957-2.487l1.66-9.571c.002-.001.002-.001.002-.002l4.461-25.696 4.768-27.464h11.463c1.658 0 3-1.344 3-3 0-1.658-1.342-3-3-3z" fill="#231f20" fill-opacity="1" data-original-color="#231f20ff" stroke="none" stroke-opacity="1"/><path d="m78.789 91.182c-5.305 0-9.621 4.315-9.621 9.62 0 5.307 4.316 9.623 9.621 9.623s9.621-4.316 9.621-9.623c0-5.304-4.316-9.62-9.621-9.62z" fill="#231f20" fill-opacity="1" data-original-color="#231f20ff" stroke="none" stroke-opacity="1"/><path d="m28.4 91.182c-5.305 0-9.621 4.315-9.621 9.62 0 5.307 4.316 9.623 9.621 9.623s9.621-4.316 9.621-9.623c0-5.304-4.316-9.62-9.621-9.62z" fill="#231f20" fill-opacity="1" data-original-color="#231f20ff" stroke="none" stroke-opacity="1"/></g></g></svg>